<?xml version="1.0" standalone="no"?>
<!DOCTYPE svg PUBLIC "-//W3C//DTD SVG 1.1//EN" "http://www.w3.org/Graphics/SVG/1.1/DTD/svg11.dtd" >
<svg xmlns="http://www.w3.org/2000/svg">
<metadata></metadata>
<defs>
<font id="psl_omyimbold_italic" horiz-adv-x="819" >
<font-face units-per-em="2048" ascent="1638" descent="-410" />
<missing-glyph horiz-adv-x="512" />
<glyph horiz-adv-x="0" />
<glyph unicode="&#xd;" horiz-adv-x="512" />
<glyph unicode=" "  horiz-adv-x="512" />
<glyph unicode="&#x09;" horiz-adv-x="512" />
<glyph unicode="&#xa0;" horiz-adv-x="512" />
<glyph unicode="!" horiz-adv-x="440" d="M39 78q0 18 2 20q10 53 55 90t103 37q47 0 79.5 -30.5t32.5 -75.5q0 -19 -2 -21q-10 -53 -53 -88t-100 -35q-53 0 -85 28t-32 75zM109 379q0 27 6 57l67 391q31 160 152 160q98 0 98 -102q0 -27 -6 -58l-68 -391q-31 -162 -149 -162q-100 0 -100 105z" />
<glyph unicode="&#x22;" horiz-adv-x="489" d="M96 580l66 368h155l-65 -368h-156zM324 580l65 368h154l-66 -368h-153z" />
<glyph unicode="#" horiz-adv-x="1114" d="M12 262l84 150h197l76 135h-209l86 151h207l147 269h180l-149 -269h145l148 269h176l-148 -269h197l-86 -151h-195l-75 -135h202l-82 -150h-200l-154 -264h-176l152 264h-146l-151 -264h-177l150 264h-199zM469 412h147l76 135h-147z" />
<glyph unicode="$" horiz-adv-x="804" d="M0 135q6 47 45 77t96 30q25 0 103 -25q76 -25 133 -24q35 0 62.5 15t42 37.5t15.5 49.5t-18 49q-20 27 -129 57q-133 39 -191.5 88.5t-58.5 135.5q0 16 1 29.5t3 23.5q20 113 108.5 194.5t225.5 108.5l13 59q14 82 79 82q59 0 60 -51q0 -4 -1 -11t-3 -20l-11 -51 q119 -10 175.5 -51t44.5 -100q-14 -100 -131 -101q-33 0 -107 21q-47 12 -68 12q-98 0 -114 -72q-10 -47 55 -67q33 -10 58.5 -18.5l43.5 -14.5q238 -80 238 -248v-24q-2 -10 -3 -16.5t-1 -10.5q-23 -125 -125 -213q-100 -88 -244 -106l-14 -78q-14 -82 -84 -82 q-55 0 -55 51q0 4 1 11t3 20l14 73q-141 14 -206.5 58.5t-55.5 101.5z" />
<glyph unicode="%" horiz-adv-x="1013" d="M82 713q0 8 1 17t3 22q16 92 94 157q76 63 174 64q86 0 139.5 -51.5t53.5 -133.5q0 -6 -1 -15t-3 -21q-16 -92 -97 -158q-76 -63 -170 -64q-86 0 -140 51.5t-54 131.5zM109 63q4 16 11 34t25 40l605 766q63 76 120 76q39 0 61.5 -23.5t16.5 -58.5q-6 -41 -39 -74 l-602 -766q-63 -76 -121 -75q-39 0 -61.5 22.5t-15.5 58.5zM252 752q-4 -23 11.5 -41.5t41.5 -18.5q23 0 45.5 18.5t26.5 41.5q4 27 -11.5 44t-39.5 17q-27 0 -48.5 -17.5t-25.5 -43.5zM516 170q0 4 1 14.5t3 24.5q8 45 33 86t60.5 69.5t79.5 46t93 17.5q86 0 139.5 -50 t53.5 -130q0 -8 -1 -17.5t-3 -21.5q-8 -47 -32.5 -87t-60.5 -68.5t-80 -45t-93 -16.5q-86 0 -139.5 48t-53.5 130zM684 209q-4 -25 11.5 -43.5t41.5 -18.5q25 0 45.5 18.5t24.5 43.5q4 23 -10.5 41t-38.5 18q-27 0 -48.5 -16t-25.5 -43z" />
<glyph unicode="&#x26;" horiz-adv-x="993" d="M10 225v23q2 10 3 16t1 8q33 186 279 293q-59 84 -60 156q0 4 1.5 13t3.5 22q14 98 110 164q94 68 234 67q123 0 192.5 -56.5t69.5 -144.5q0 -4 -1 -14t-3 -24q-23 -145 -207 -244l98 -133q29 25 48.5 43t33.5 28q57 49 102 50q39 0 63.5 -29t16.5 -70q-12 -66 -153 -172 q35 -51 50 -81.5t9 -59.5q-8 -43 -43 -69.5t-82 -26.5q-53 0 -131 90q-74 -49 -154.5 -74t-179.5 -25q-135 0 -218 70t-83 180zM262 254q0 -39 30 -64.5t79 -25.5q78 0 172 63l-140 187q-125 -53 -139 -138q-2 -4 -2 -22zM467 752q-8 -45 53 -107q107 42 115 103 q4 27 -16.5 49t-57.5 22q-35 0 -62.5 -19.5t-31.5 -47.5z" />
<glyph unicode="'" horiz-adv-x="266" d="M96 580l66 368h155l-65 -368h-156z" />
<glyph unicode="(" horiz-adv-x="481" d="M92 201q0 168 48 352t147 346q76 129 151 129q84 0 84 -72q0 -18 -2 -20q-61 -123 -114.5 -246t-77.5 -264q-8 -43 -12.5 -96.5t-4.5 -96.5q0 -51 6.5 -109t16.5 -124q10 -72 8 -78q-16 -92 -115 -92q-37 0 -60.5 23.5t-41.5 76.5q-33 117 -33 271z" />
<glyph unicode=")" horiz-adv-x="481" d="M-12 -96q0 16 2 18q29 59 55.5 118.5t52.5 119.5q29 70 50.5 135t31.5 131q6 41 11.5 94t5.5 94q0 51 -7 111q-4 31 -8 63.5t-8 67.5q-10 76 -8 80q12 92 115 92q72 0 102 -113q33 -106 33 -262q0 -59 -5.5 -115.5t-15.5 -111.5q-23 -129 -65.5 -239.5t-108.5 -227.5 q-78 -129 -151 -129q-82 0 -82 74z" />
<glyph unicode="*" horiz-adv-x="731" d="M162 641q6 33 33.5 50.5t93.5 37.5q-55 20 -78 38.5t-16 51.5q4 31 28.5 53.5t59.5 22.5q33 0 59.5 -21.5t38.5 -31.5l4 67q16 78 92 78q70 0 70 -59q0 -16 -2 -19q-2 -12 -8.5 -30.5t-14.5 -36.5q16 10 27.5 18t19.5 12q41 23 72 23t49.5 -23.5t14.5 -52.5 q-6 -31 -36 -49t-91 -41q53 -20 76.5 -38.5t17.5 -49.5q-4 -33 -29 -54.5t-59 -21.5q-27 0 -47.5 12.5t-53.5 40.5v-43q0 -20 -2 -24q-16 -80 -94 -80q-82 0 -65 80l20 67q-51 -35 -72.5 -44t-44.5 -9q-31 0 -49 22.5t-14 53.5z" />
<glyph unicode="+" d="M59 332l25 145h274l50 275h145l-49 -275h276l-24 -145h-277l-49 -277h-145l49 277h-275z" />
<glyph unicode="," horiz-adv-x="421" d="M-88 -104q2 31 35 69l143 187q59 78 123 77q45 0 68.5 -25.5t17.5 -66.5q-2 -16 -12 -33q0 -2 -25 -38l-145 -187q-61 -78 -119 -78q-43 0 -68.5 27t-17.5 68z" />
<glyph unicode="-" horiz-adv-x="628" d="M51 375q14 92 142 92h288q57 0 84 -24.5t19 -67.5q-16 -92 -138 -92h-288q-123 0 -107 92z" />
<glyph unicode="." horiz-adv-x="421" d="M29 98q0 18 2 21q10 53 57 91t107 38q51 0 83.5 -31t32.5 -78q0 -16 -2 -20q-10 -55 -55 -90t-104 -35q-53 0 -87 27.5t-34 76.5z" />
<glyph unicode="/" horiz-adv-x="546" d="M-111 61q4 18 11.5 34t23.5 36l574 776q33 41 61.5 62.5t61.5 21.5q45 0 70.5 -25.5t17.5 -66.5q-6 -35 -33 -68l-582 -780q-55 -78 -117 -78q-43 0 -68.5 26t-19.5 62z" />
<glyph unicode="0" d="M47 332q0 37 3 74.5t11 76.5q43 250 175 381q123 127 286 127q135 0 217 -89t82 -269q0 -84 -14 -150q-45 -248 -176 -381q-123 -123 -287 -122q-135 0 -213 83q-84 96 -84 269zM301 352q0 -154 82 -153q119 -1 170 284q12 74 12 129q0 156 -82 156q-53 0 -98 -71.5 t-70 -213.5q-8 -35 -11 -68.5t-3 -62.5z" />
<glyph unicode="1" d="M211 831q0 18 2 21q23 109 195 109h114q119 0 119 -105q0 -26 -6 -57l-115 -647q-29 -158 -155 -158q-104 0 -105 102q0 25 6 56l105 589h-13q-147 0 -147 90z" />
<glyph unicode="2" d="M0 86q0 8 1 18.5t3 24.5q4 29 223 217q297 264 314 342q6 37 -11.5 58.5t-50.5 21.5q-63 0 -117 -90q-61 -117 -143 -117q-45 0 -72.5 25.5t-27.5 70.5q0 16 4 42t31 73q33 57 69 90q131 125 303 125q131 0 208 -66.5t77 -170.5q0 -10 -1 -23t-3 -29q-18 -109 -125 -221 q-84 -90 -289 -258h182q156 0 156 -86q0 -20 -2 -24q-18 -109 -192 -109h-406q-131 0 -131 86z" />
<glyph unicode="3" d="M23 217q0 8 1 19.5t3 25.5q6 31 42.5 61.5t88.5 30.5q35 0 55 -15t43 -48q14 -29 25.5 -45.5t19.5 -24.5q35 -29 82 -28q45 0 82 31.5t45 78.5q2 4 2 21q0 37 -28.5 54t-92.5 25q-47 10 -67.5 26.5t-20.5 51.5q0 14 2 34t13.5 38t37 34.5t72.5 26.5q102 20 113 86 q6 31 -11.5 50.5t-50.5 19.5q-29 0 -55 -14q-2 -2 -15.5 -10.5t-35.5 -24.5q-53 -41 -70 -49q-33 -20 -72 -21q-43 0 -68.5 29t-17.5 72q14 82 129 159q113 76 250 76q123 0 197 -62.5t74 -160.5q0 -8 -1 -18.5t-3 -24.5q-20 -115 -144 -193q123 -72 123 -192 q0 -12 -2 -26.5t-2 -22.5q-23 -133 -143 -224q-119 -88 -285 -88q-123 0 -219 72q-96 78 -96 170z" />
<glyph unicode="4" d="M-2 279q0 12 1 28.5t15 40.5q8 14 60 78l358 442q49 57 94 82t105 25q156 0 155 -162q0 -33 -6 -65l-59 -336q43 0 64.5 -23.5t21.5 -60.5q0 -17 -2 -21q-6 -41 -40 -72.5t-81 -31.5l-14 -90q-23 -121 -146 -121q-90 0 -90 86q0 4 1 15t3 28l15 82h-324q-131 0 -131 76z M299 412h190l58 315z" />
<glyph unicode="5" d="M8 152q0 12 5 37.5t40 54.5q33 31 80 30q29 0 70 -24q88 -55 141 -55q55 0 99 37.5t55 93.5q2 4 2 30q0 92 -94 93q-25 0 -90.5 -16.5t-86.5 -16.5q-84 0 -84 76q0 23 2 26l21 76l74 244q23 76 63.5 99.5t120.5 23.5h281q139 0 139 -87q0 -18 -2 -22q-16 -109 -168 -109 h-227l-29 -90q25 4 48.5 6.5t37.5 2.5q117 0 189.5 -71t72.5 -190q0 -31 -6 -63q-29 -162 -156 -262q-125 -100 -299 -101q-66 0 -120 13.5t-94 37t-62.5 55.5t-22.5 71z" />
<glyph unicode="6" d="M23 256q0 31 6 68q35 205 319 483q197 184 270 184q47 0 79 -33.5t24 -76.5q-6 -37 -80 -103q-59 -53 -100 -92t-64 -61l58 4q111 0 180 -68.5t69 -185.5q0 -29 -6 -60q-25 -141 -151 -243q-127 -96 -295 -97q-141 0 -225 76t-84 205zM279 289q0 -43 27.5 -71t70.5 -28 q51 0 92 35t51 86q2 4 2 23q0 43 -28.5 69.5t-73.5 26.5q-49 0 -89 -34t-50 -85q-2 -4 -2 -22z" />
<glyph unicode="7" d="M102 86q8 37 50 98l389 559h-265q-80 0 -113.5 16.5t-33.5 63.5q0 20 2 25q18 113 168 113h397q158 0 158 -101q0 -22 -2 -26q-4 -20 -11 -38t-26 -46l-453 -672q-78 -102 -149 -103q-55 0 -87 31t-24 80z" />
<glyph unicode="8" d="M16 238q0 10 1 22t3 29q25 150 170 239q-57 57 -57 142q0 8 1 18t3 25q20 113 131 194q111 80 252 80q131 0 211 -62.5t80 -166.5q0 -8 -1 -19.5t-3 -25.5q-18 -109 -119 -185q90 -72 90 -184q0 -18 -1 -31.5t-3 -23.5q-23 -133 -145 -226q-125 -88 -287 -88 q-147 0 -236.5 73t-89.5 190zM276.5 309q-10.5 -53 20.5 -89t82 -36t95 36t54 89q8 51 -23.5 88t-82.5 37t-93 -36t-52.5 -89zM377 694q-6 -37 16.5 -63.5t59.5 -26.5q39 0 70.5 25.5t39.5 64.5q6 37 -16.5 63.5t-61.5 26.5q-37 0 -69.5 -26.5t-38.5 -63.5z" />
<glyph unicode="9" d="M78 584q0 29 6 57q29 147 153.5 247.5t294.5 100.5q141 0 224.5 -75.5t83.5 -204.5q0 -33 -6 -70q-39 -209 -322 -485q-193 -180 -268 -181q-47 0 -79 32t-24 77q6 31 49 74q47 45 96.5 90t98.5 92l-49 -4q-117 0 -187.5 69.5t-70.5 180.5zM342 627q0 -43 26.5 -70 t71.5 -27q49 0 91.5 35t50.5 84q2 2 2 13v10q0 43 -30 70.5t-73 27.5q-49 0 -88 -34t-49 -87q-2 -4 -2 -22z" />
<glyph unicode=":" horiz-adv-x="421" d="M29 98q0 18 2 21q10 53 57 91t107 38q51 0 83.5 -31t32.5 -78q0 -16 -2 -20q-10 -55 -55 -90t-104 -35q-53 0 -87 27.5t-34 76.5zM98 496q0 18 2 20q10 53 58.5 91t107.5 38q53 0 84 -28.5t31 -75.5q0 -21 -2 -25q-10 -55 -55 -92t-105 -37q-53 0 -87 29.5t-34 79.5z" />
<glyph unicode=";" horiz-adv-x="421" d="M-88 -104q2 31 35 69l143 187q59 78 123 77q45 0 68.5 -25.5t17.5 -66.5q-2 -16 -12 -33q0 -2 -25 -38l-145 -187q-61 -78 -119 -78q-43 0 -68.5 27t-17.5 68zM98 496q0 16 2 20q10 53 58.5 91t107.5 38q53 0 84 -28.5t31 -75.5q0 -21 -2 -25q-8 -53 -55.5 -92 t-104.5 -39q-55 0 -88 30.5t-33 80.5z" />
<glyph unicode="&#x3c;" horiz-adv-x="1204" d="M180 332l25 143l895 313l-29 -163l-639 -222l561 -223l-28 -162z" />
<glyph unicode="=" d="M35 197l24 145h697l-25 -145h-696zM82 465l27 145h696l-27 -145h-696z" />
<glyph unicode="&#x3e;" horiz-adv-x="1204" d="M125 18l29 162l641 223l-564 222l29 163l784 -313l-24 -143z" />
<glyph unicode="?" horiz-adv-x="743" d="M74 735q16 90 127 166q119 82 266 82q141 0 221 -70.5t80 -183.5q0 -16 -1 -28.5t-3 -22.5q-20 -113 -100 -188.5t-197 -96.5q-25 -137 -145 -137q-98 0 -99 96q0 29 2 35l17 84q6 41 20 61.5t49 32.5q10 4 46 11.5t59 15.5q76 27 88 96q6 31 -16.5 53.5t-59.5 22.5 q-41 0 -82 -23q-10 -6 -22.5 -15t-26.5 -19q-16 -16 -29.5 -26.5t-21.5 -16.5q-47 -35 -86 -35q-47 0 -70.5 29.5t-15.5 76.5zM156 78q0 18 2 20q10 55 54 90t103 35q51 0 83 -29.5t32 -74.5q0 -19 -2 -21q-10 -53 -54 -88t-102 -35q-51 0 -83.5 27t-32.5 76z" />
<glyph unicode="@" horiz-adv-x="1439" d="M51 244q0 23 3 47t7 53q37 223 215 391q254 242 619 242q119 0 219 -31t166 -84q135 -111 135 -278q0 -33 -4 -52.5t-4 -29.5q-37 -221 -244 -361q-113 -76 -245 -75q-141 0 -142 90q-86 -88 -213 -88q-199 0 -198 172q0 29 6 59q27 158 145 266q121 109 266 109 q109 0 150 -78l41 55h141l-174 -399l-8 -25q-6 -35 47 -34q53 0 113 47q137 106 165 264q4 20 5 31v24q0 63 -28 117.5t-78 92.5t-122.5 59.5t-165.5 21.5q-186 0 -344 -84q-266 -150 -313 -422q-8 -31 -8 -82q0 -160 118.5 -250t329.5 -90q223 0 447 125l49 -90 q-256 -158 -514 -158q-274 0 -426 127q-156 123 -156 318zM537 262q0 -80 81 -80q55 0 104.5 37t80.5 105l61 137q0 98 -94 98q-37 0 -74 -20.5t-68.5 -55t-55 -84t-33.5 -104.5q-2 -6 -2 -33z" />
<glyph unicode="A" horiz-adv-x="907" d="M-43 80q2 6 2 18q4 16 8 31.5t15 34.5l374 665q90 145 215 146q125 0 158 -131l135 -676q4 -25 4 -46q0 -14 -2 -26q-8 -49 -48 -77.5t-95 -28.5q-94 0 -113 108l-10 78h-358l-45 -86q-55 -100 -140 -100q-47 0 -73.5 24.5t-26.5 65.5zM352 395h213l-47 305z" />
<glyph unicode="B" horiz-adv-x="897" d="M49 92q0 16 1 28.5t3 22.5l117 658q14 86 55 123t142 37h188q143 0 216 -52.5t73 -146.5q0 -6 -1 -17.5t-3 -27.5q-25 -127 -138 -185q147 -43 148 -188q0 -24 -6 -51q-23 -135 -132.5 -214t-289.5 -79h-227q-86 0 -116 19.5t-30 72.5zM315 205h105q148 0 164 96 q2 10 2 19q0 75 -137 75h-101zM383 594h86q49 0 80 22.5t37 59.5q1 7 1 14q1 28 -19 46q-24 22 -72 22h-84z" />
<glyph unicode="C" horiz-adv-x="874" d="M51 373q0 23 3 49.5t7 56.5q39 227 209 367q168 141 389 141q68 0 123.5 -13t93.5 -34q38 -22 56 -52q14 -23 13 -46q0 -8 -1 -15q-8 -43 -45 -74.5t-82 -31.5q-16 0 -61 10q-88 27 -135 27q-111 0 -188 -76t-99 -207q-6 -37 -6 -72q0 -98 51 -150t149 -52q49 0 129 22 q76 25 95 25q40 0 66 -31q20 -24 20 -55q0 -9 -2 -19q-12 -68 -113 -118q-96 -49 -244 -50q-197 0 -312.5 105.5t-115.5 292.5z" />
<glyph unicode="D" horiz-adv-x="1009" d="M49 92q0 16 1 28.5t3 22.5l117 658q14 86 55 123t142 37h184q193 0 295 -68q158 -102 158 -313v-54q-4 -12 -5.5 -21t-3.5 -13q-39 -225 -196.5 -358.5t-392.5 -133.5h-211q-86 0 -116 19.5t-30 72.5zM317 219h95q266 1 311 273q6 37 6 69q0 180 -229 180h-90z" />
<glyph unicode="E" horiz-adv-x="737" d="M49 92q0 16 1 28.5t3 22.5l117 658q14 86 55 123t142 37h260q155 0 155 -88q0 -19 -2 -23q-18 -109 -192 -109h-178l-27 -147h152q157 0 157 -89q0 -17 -2 -22q-23 -108 -191 -108h-3h-152l-27 -156h185q155 0 155 -85q0 -21 -2 -25q-18 -109 -192 -109h-268 q-86 0 -116 19.5t-30 72.5z" />
<glyph unicode="F" horiz-adv-x="714" d="M49 92q0 27 6 58l115 651q14 86 55 123t142 37h260q155 0 155 -88q0 -19 -2 -23q-18 -109 -192 -109h-178l-27 -147h152q157 0 157 -89q0 -17 -2 -22q-23 -108 -191 -108h-3h-152l-39 -225q-31 -158 -153 -158q-102 0 -103 100z" />
<glyph unicode="G" horiz-adv-x="1046" d="M51 377q0 23 3 48.5t7 55.5q41 236 207 371q162 137 404 137q158 0 252 -57q96 -59 96 -131q0 -16 -2 -19q-8 -45 -45 -77.5t-82 -32.5q-6 0 -135 61q-66 31 -129 31q-113 0 -192 -74t-101 -205q-8 -31 -8 -77q0 -98 53 -154.5t145 -56.5q86 0 145.5 46t78.5 124h-68 q-156 0 -156 86q0 18 2 22q18 111 191 111h168q80 0 114.5 -23.5t34.5 -83.5q0 -14 -1 -25.5t-3 -21.5q-35 -203 -190 -332q-156 -125 -373 -125q-188 0 -301 107q-115 111 -115 295z" />
<glyph unicode="H" horiz-adv-x="1083" d="M49 92q0 27 6 58l117 661q27 162 154 162q102 0 102 -107q0 -25 -6 -55l-39 -213h401l39 213q27 162 156 162q102 0 102 -107q0 -24 -6 -55l-117 -661q-31 -158 -153 -158q-104 0 -105 100q0 27 7 58l41 229h-402l-41 -229q-31 -158 -153 -158q-102 0 -103 100z" />
<glyph unicode="I" horiz-adv-x="440" d="M53 92q0 27 6 58l117 661q27 162 156 162q102 0 102 -107q0 -24 -6 -55l-117 -661q-31 -158 -153 -158q-104 0 -105 100z" />
<glyph unicode="J" horiz-adv-x="657" d="M-43 139q8 47 43 78t88 31q27 0 88 -31q39 -16 51 -16q39 0 62 43q14 25 33 123l77 444q27 162 154 162q104 0 104 -107q0 -24 -6 -55l-90 -514q-59 -319 -364 -320q-123 0 -187 47q-55 41 -55 94q0 10 2 21z" />
<glyph unicode="K" horiz-adv-x="897" d="M49 92q0 27 6 58l117 661q27 162 154 162q102 0 102 -107q0 -25 -6 -55l-37 -207l324 289q90 78 143 78q46 0 74 -32q21 -25 22 -57q0 -9 -2 -20q-8 -51 -80 -112l-282 -234l247 -307q41 -47 41 -93q0 -9 -2 -18q-8 -43 -49 -74.5t-86 -31.5q-35 0 -60.5 17.5t-58.5 58.5 l-266 335l-45 -253q-31 -158 -153 -158q-102 0 -103 100z" />
<glyph unicode="L" horiz-adv-x="675" d="M49 90q0 25 6 55l117 666q27 162 154 162q102 0 102 -107q0 -25 -6 -55l-105 -592h185q155 0 155 -85q0 -21 -2 -25q-18 -109 -192 -109h-268q-82 0 -114 19.5t-32 70.5z" />
<glyph unicode="M" horiz-adv-x="1247" d="M-20 86q0 18 2 23l18 67l238 643q29 80 73.5 117t118.5 37q70 0 107.5 -33t37.5 -102l54 -523l223 523q57 135 195 135q78 0 110.5 -38t32.5 -124l-4 -649l-4 -53q-8 -55 -50 -87t-96 -32q-102 0 -102 131l22 506q-225 -535 -278 -596q-37 -41 -113 -41q-117 0 -127 114 l-43 525l-159 -496q-43 -141 -156 -141q-100 0 -100 94z" />
<glyph unicode="N" horiz-adv-x="1083" d="M49 92q0 27 6 58l119 669q25 154 143 154q74 0 117 -74l318 -498l71 410q27 162 156 162q102 0 102 -107q0 -24 -6 -55l-121 -684q-25 -141 -143 -141q-72 0 -125 77l-309 490l-72 -403q-31 -158 -153 -158q-102 0 -103 100z" />
<glyph unicode="O" horiz-adv-x="1091" d="M51 373q0 23 3 49.5t7 56.5q41 229 205 367q166 141 393 141q199 0 312.5 -106.5t113.5 -292.5q0 -23 -3 -50.5t-7 -58.5q-39 -227 -203 -366q-162 -137 -391 -138q-205 0 -317.5 105.5t-112.5 292.5zM328 406q0 -98 50 -153.5t142 -55.5q104 0 182 75.5t101 204.5 q4 16 6 39t2 41q0 98 -51 152.5t-139 54.5q-106 0 -184.5 -76t-102.5 -211q-6 -41 -6 -71z" />
<glyph unicode="P" horiz-adv-x="880" d="M49 92q0 27 6 58l115 651q14 86 55 123t142 37h208q154 0 240 -70t86 -193q0 -30 -6 -67q-27 -156 -136.5 -243t-283.5 -87h-143l-27 -151q-31 -158 -153 -158q-102 0 -103 100zM369 516h90q148 0 166 115q2 4 2 28q0 84 -127 84h-90z" />
<glyph unicode="Q" horiz-adv-x="1091" d="M51 373q0 23 3 49.5t7 56.5q41 229 205 367q166 141 393 141q199 0 312.5 -106.5t113.5 -292.5q0 -23 -3 -50.5t-7 -58.5q-29 -174 -143 -301l57 -55q37 -37 37 -80q0 -10 -2 -20q-8 -39 -45 -70t-82 -31q-55 0 -98 47l-64 58q-55 -27 -115.5 -39.5t-138.5 -12.5 q-205 0 -317.5 105.5t-112.5 292.5zM328 403q0 -98 51 -153t143 -55q37 0 51 8q-35 41 -34 76q-4 6 0 24.5t18 38.5t37.5 36.5t60.5 16.5q47 0 101 -53q35 78 47 135q4 16 6 39t2 41q0 98 -51 152.5t-139 54.5q-106 0 -184.5 -76t-102.5 -211q-6 -41 -6 -74z" />
<glyph unicode="R" horiz-adv-x="868" d="M49 92q0 27 6 58l115 651q14 86 55 123t142 37h180q168 0 257 -67t89 -183q0 -16 -1 -30t-3 -24q-18 -104 -90 -170.5t-189 -89.5l140 -176q48 -56 48 -110q0 -9 -1 -19q-8 -45 -48 -75.5t-92 -30.5q-35 0 -62.5 17t-55.5 58l-199 291l-35 -202q-31 -158 -153 -158 q-102 0 -103 100zM373 535h96q140 0 154 106q2 4 2 23q0 79 -114 79h-3h-98z" />
<glyph unicode="S" horiz-adv-x="804" d="M0 135q6 49 44 78t97 29q33 0 74 -15q97 -32 158 -32h4q43 0 77.5 24.5t41.5 61.5q1 8 1 15q0 28 -18 48q-20 27 -129 57q-133 39 -191.5 88.5t-58.5 135.5q0 16 1 29.5t3 23.5q12 68 49 124t93.5 98t130.5 64.5t160 22.5q129 0 199 -44q61 -38 60 -91q0 -8 -1 -16 q-14 -100 -131 -101q-33 0 -107 21q-47 12 -68 12q-100 0 -114 -70q-1 -6 -1 -12q0 -38 56 -55q33 -10 58.5 -18.5l43.5 -14.5q238 -80 238 -246v-24q-2 -10 -3 -16.5t-1 -10.5q-25 -141 -152 -233q-127 -90 -307 -91q-143 0 -231 46q-77 41 -77 101q0 5 1 11z" />
<glyph unicode="T" horiz-adv-x="692" d="M57 829q0 16 2 21q20 111 195 111h401q156 0 156 -89q0 -18 -2 -22q-18 -109 -193 -109h-75l-105 -591q-31 -158 -153 -158q-104 0 -105 100q0 27 6 58l105 591h-74q-158 0 -158 88z" />
<glyph unicode="U" horiz-adv-x="1067" d="M92 307q0 23 3 49.5t7 57.5l70 397q27 162 154 162q102 0 102 -107q0 -25 -6 -55l-66 -375q-4 -16 -6 -38.5t-2 -39.5q0 -161 156 -161h2q193 0 235 239l66 375q27 162 156 162q102 0 102 -107q0 -24 -6 -55l-70 -397q-37 -217 -174 -328t-348 -111q-180 0 -277.5 83 t-97.5 249z" />
<glyph unicode="V" horiz-adv-x="837" d="M68 827q2 6 2 25q8 51 52 85t101 34q74 0 96 -99l113 -507l273 499q61 106 145 107q104 0 104 -88q0 -19 -2 -23q-6 -33 -8 -35q-2 -6 -7 -16t-13 -27l-420 -706q-59 -90 -148 -90q-78 0 -102 82l-182 720q-2 12 -3 21.5t-1 17.5z" />
<glyph unicode="W" horiz-adv-x="1318" d="M96 819l6 49q8 49 47 78t99 29q102 0 102 -103l17 -553l249 555q49 98 158 99q106 0 119 -101l53 -553l207 539q47 115 147 115q49 0 78 -24.5t29 -63.5q0 -19 -2 -21q-2 -14 -7 -30.5t-14 -34.5l-292 -662q-35 -82 -76 -113.5t-119 -31.5q-129 0 -143 125l-52 499 l-217 -487q-57 -137 -200 -137q-141 0 -142 145z" />
<glyph unicode="X" horiz-adv-x="843" d="M-59 92q4 29 20 52.5t49 62.5l295 313l-139 234q-35 53 -35 92q0 8 1 17t3 22q6 27 45 57.5t94 30.5q61 0 111 -86l104 -172l166 176q80 84 146 84q43 0 73 -32q23 -25 23 -55q0 -8 -2 -16q-6 -31 -24.5 -56t-51.5 -58l-221 -236l186 -317q10 -23 17.5 -37t9.5 -18 q12 -31 6 -60q-8 -43 -46 -70.5t-87 -27.5q-70 0 -121 80l-149 258l-240 -256q-78 -80 -143 -80q-43 0 -70 28q-21 23 -21 54q0 8 1 16z" />
<glyph unicode="Y" horiz-adv-x="755" d="M61 850q0 12 4.5 35.5t45.5 54.5q39 33 94 33q61 0 110 -86l127 -217l205 221q74 84 146 84q43 0 71 -31q23 -24 23 -55q0 -8 -2 -17q-6 -33 -22.5 -56t-51.5 -58l-285 -309l-53 -299q-31 -158 -154 -158q-104 0 -104 102q0 25 6 56l53 299l-176 305q-4 10 -10 18t-10 19 q-16 37 -17 59z" />
<glyph unicode="Z" horiz-adv-x="776" d="M-32.5 155.5q14.5 34.5 73.5 96.5l485 493h-276q-158 0 -158 86q0 18 2 21q23 109 195 109h391q188 0 188 -93q0 -18 -2 -22q-6 -35 -27.5 -63.5t-66.5 -71.5l-473 -492h305q156 0 156 -88q0 -18 -2 -22q-18 -109 -193 -109h-463q-149 0 -149 91q0 30 14.5 64.5z" />
<glyph unicode="[" horiz-adv-x="522" d="M31 -82q0 23 6 53l160 903q14 88 57 125t141 37h103q120 0 106 -80q-14 -82 -137 -82h-55l-158 -886h57q59 0 86 -22.5t21 -61.5q-16 -80 -137 -80h-101q-82 0 -115.5 20.5t-33.5 73.5z" />
<glyph unicode="\" horiz-adv-x="546" d="M33 899q8 39 43 65.5t78 26.5q63 0 92 -84l305 -778q16 -41 10 -68q-6 -39 -43 -63.5t-80 -24.5q-66 0 -94 78l-299 780q-18 31 -12 68z" />
<glyph unicode="]" horiz-adv-x="522" d="M-47 -96q16 84 131 84h57l158 886h-55q-123 0 -109 82q14 80 135 80h103q82 0 114.5 -24.5t32.5 -81.5q0 -25 -6 -56l-160 -903q-16 -84 -56 -115.5t-138 -31.5h-103q-121 0 -104 80z" />
<glyph unicode="^" horiz-adv-x="1439" d="M317 594l420 371h183l286 -371h-192l-209 225l-293 -225h-195z" />
<glyph unicode="_" horiz-adv-x="731" d="M-106 -274l24 135h727l-24 -135h-727z" />
<glyph unicode="`" horiz-adv-x="731" d="M283 1004q8 39 39.5 63.5t74.5 24.5q55 0 82 -45l82 -127q20 -27 14 -62q-12 -78 -100 -78q-23 0 -39 8.5t-39 34.5l-88 107q-31 33 -26 74z" />
<glyph unicode="a" horiz-adv-x="874" d="M29 287q0 37 6 73q29 160 151 269q126 108 270 108h3q109 0 168 -67q53 59 118 59q98 0 99 -104q0 -25 -6 -58l-74 -415q-29 -158 -150 -158q-74 0 -98 61q-89 -67 -194 -67h-3q-129 0 -209.5 81t-80.5 218zM285 322q0 -119 108 -119q59 0 104.5 42.5t57.5 116.5 q2 12 3 21.5t1 15.5q0 53 -30.5 86t-77.5 33q-57 0 -103.5 -42t-58.5 -114q-2 -14 -3 -24t-1 -16z" />
<glyph unicode="b" horiz-adv-x="874" d="M37 94q0 27 6 58l127 718q27 162 152 162q98 0 98 -104q0 -27 -6 -58l-31 -172q76 49 174 50q63 0 117.5 -23t94.5 -62.5t61.5 -97t21.5 -125.5q0 -31 -4 -50.5t-4 -27.5q-29 -164 -152 -268q-121 -104 -268 -104q-109 0 -170 61q-55 -57 -117 -57q-100 0 -100 100z M317 324q0 -57 31 -90t82 -33q57 0 104.5 46t61.5 120q2 14 3 24t1 17q0 59 -29.5 93t-81.5 34q-61 0 -108 -45.5t-59 -122.5q-2 -16 -3.5 -27.5t-1.5 -15.5z" />
<glyph unicode="c" horiz-adv-x="694" d="M27 281q0 31 4 50t4 29q27 168 153 273q125 104 308 104q119 0 182 -39q54 -34 54 -85q0 -8 -1 -17q-6 -43 -39 -71.5t-80 -28.5q-23 0 -86 20q-43 12 -67 12q-63 0 -110.5 -44t-61.5 -119q-2 -16 -3 -27.5t-1 -15.5q0 -123 127 -123q29 0 90 16t69 16q37 0 59.5 -22.5 t22.5 -58.5q0 -16 -2 -19q-12 -63 -95 -104t-206 -41q-147 0 -234 78.5t-87 216.5z" />
<glyph unicode="d" horiz-adv-x="874" d="M31 297q0 35 6 72q27 160 149 270q127 109 273 109q96 0 155 -50l31 172q27 162 154 162q98 0 98 -104q0 -27 -6 -58l-127 -718q-29 -158 -150 -158q-68 0 -100 57q-84 -61 -188 -61q-61 0 -115.5 22.5t-94.5 62.5t-62.5 96t-22.5 126zM285 324q0 -123 110 -123 q61 0 106.5 44t59.5 122q2 14 3 24t1 17q0 127 -110 127q-59 0 -106.5 -45.5t-59.5 -122.5q-2 -16 -3 -27.5t-1 -15.5z" />
<glyph unicode="e" horiz-adv-x="817" d="M29 289q0 33 6 69q29 164 158 273q132 108 293 108h3q72 0 130.5 -22.5t100.5 -61.5t64.5 -92t22.5 -114q0 -31 -6 -62q-10 -57 -40 -75.5t-97 -18.5h-388q0 -106 138 -107q72 0 149 33q88 35 99 35q44 0 68 -24q17 -17 17 -43q0 -10 -2 -21q-12 -70 -122 -127 q-111 -53 -258 -53q-74 0 -136.5 21.5t-106.5 61.5t-68.5 96t-24.5 124zM301 446h268q0 45 -31.5 75t-80.5 30q-111 0 -156 -105z" />
<glyph unicode="f" horiz-adv-x="520" d="M35 612q16 102 153 103l2 26q25 143 101 217t192 74q76 0 113 -31q29 -24 29 -64q0 -10 -2 -22q-8 -45 -39 -66.5t-76 -27.5q-43 -4 -51 -16q-8 -8 -15 -51l-6 -39h23q137 0 137 -83q0 -10 -2 -20q-18 -100 -172 -100h-29l-63 -360q-29 -158 -148 -158q-100 0 -100 100 q0 27 6 58l64 360q-63 0 -94 26q-25 22 -25 56q0 8 2 18z" />
<glyph unicode="g" horiz-adv-x="868" d="M-35 -143q10 47 42 74.5t81 27.5q27 0 92 -27q73 -28 133 -28h4q164 0 195 162v8q-2 -2 -2 -8q0 -4 -2 -7q-29 -33 -82 -52t-121 -19q-123 0 -199.5 79.5t-76.5 215.5q0 35 6 75q29 164 151 271q126 108 270 108h3q109 0 168 -67q47 59 110 59q98 0 99 -104 q-1 -25 -7 -58l-73 -420q-18 -109 -41 -174t-66 -118q-129 -158 -375 -158q-156 0 -238 46q-73 40 -73 97q0 8 2 17zM285 313q0 -123 108 -123q61 0 106.5 45t59.5 123q2 14 3 24.5t1 14.5q0 57 -29.5 89t-80.5 32q-59 0 -105.5 -44t-58.5 -116q-2 -16 -3 -27.5t-1 -17.5z " />
<glyph unicode="h" horiz-adv-x="858" d="M37 94q0 27 6 58l127 718q27 162 152 162q98 0 98 -104q0 -27 -6 -58l-33 -184q78 53 192 53q238 0 238 -213q0 -34 -6 -73l-53 -301q-29 -158 -152 -158q-100 0 -100 100q0 27 6 58l41 237q6 37 6 68q0 84 -88 84q-111 0 -135 -150l-43 -239q-29 -158 -150 -158 q-100 0 -100 100z" />
<glyph unicode="i" horiz-adv-x="411" d="M43 94q0 27 6 58l74 419q31 164 151 164q100 0 101 -106q0 -27 -6 -58l-74 -419q-29 -158 -152 -158q-100 0 -100 100zM164 877q0 16 5 47.5t52 68.5q45 39 107 39q51 0 83.5 -30.5t32.5 -77.5q0 -19 -2 -23q-10 -53 -57 -92t-104 -39q-55 0 -86 28.5t-31 78.5z" />
<glyph unicode="j" horiz-adv-x="411" d="M-2 -190q0 14 1 29.5t1 31.5l123 698q31 164 151 164q100 0 101 -106q0 -27 -6 -58l-123 -698q-31 -164 -154 -164q-94 0 -94 103zM164 877q0 20 2 24q10 55 56 93t106 38q51 0 83.5 -30.5t32.5 -77.5q0 -19 -2 -23q-10 -55 -57 -94t-104 -39q-53 0 -85 29.5t-32 79.5z " />
<glyph unicode="k" horiz-adv-x="749" d="M37 94q0 27 6 58l127 718q27 162 152 162q98 0 98 -104q0 -27 -6 -58l-64 -360l199 166q78 59 135 59q44 -1 70 -27q22 -22 21 -50q0 -6 -1 -13q-8 -57 -82 -108l-162 -123l162 -224q29 -41 29 -81q0 -16 -4 -41t-43 -52q-34 -24 -82 -24h-4q-70 0 -113 63l-160 256 l-28 -159q-29 -158 -150 -158q-100 0 -100 100z" />
<glyph unicode="l" horiz-adv-x="411" d="M43 94q0 27 6 58l127 718q27 162 152 162q100 0 100 -106q0 -25 -6 -56l-127 -718q-29 -158 -152 -158q-100 0 -100 100z" />
<glyph unicode="m" horiz-adv-x="1265" d="M37 94q0 27 6 58l74 415q27 162 151 162q61 0 97 -59q80 61 186 61q145 0 207 -92q113 92 243 92q219 0 220 -211q-1 -32 -7 -71l-53 -297q-29 -158 -151 -158q-98 0 -99 100q0 23 7 58l40 235q6 37 7 64q0 84 -72 84q-53 0 -83 -36t-44 -110l-41 -237 q-29 -158 -152 -158q-100 0 -100 100q0 27 6 58l41 235q6 37 6 66q0 82 -69 82q-55 0 -85 -36t-44 -110l-41 -237q-29 -158 -150 -158q-100 0 -100 100z" />
<glyph unicode="n" horiz-adv-x="858" d="M37 94q0 27 6 58l74 415q27 162 151 162q61 0 97 -59q82 63 206 63q240 0 240 -213q0 -34 -6 -71l-53 -297q-29 -158 -152 -158q-100 0 -100 100q0 27 6 58l41 235q6 37 6 64q0 86 -90 86q-109 0 -135 -148l-41 -237q-29 -158 -150 -158q-100 0 -100 100z" />
<glyph unicode="o" horiz-adv-x="845" d="M29 287q0 37 6 73q29 168 158 273q132 108 296 108h3q154 0 240.5 -83t86.5 -224q0 -37 -6 -74q-29 -166 -158 -274q-127 -104 -299 -104q-154 0 -240.5 81.5t-86.5 223.5zM285 317q0 -122 108 -122h2q61 0 106.5 44.5t59.5 122.5q2 14 3 24.5t1 16.5q0 57 -30.5 90 t-81.5 33q-59 0 -104.5 -43t-59.5 -121q-2 -16 -3 -27t-1 -18z" />
<glyph unicode="p" horiz-adv-x="874" d="M-10 -188q0 27 6 57l121 698q27 162 151 162q61 0 97 -59q76 63 192 63q131 0 212 -83t81 -218q0 -37 -6 -74q-29 -162 -154 -274q-125 -109 -268 -109q-92 0 -158 48l-28 -154q-27 -162 -150 -162q-96 0 -96 105zM315 311q0 -59 31 -92t82 -33q57 0 104.5 46t61.5 122 q2 14 3 24.5t1 14.5q0 57 -29.5 91t-81.5 34q-61 0 -108 -43t-60 -121q-2 -16 -3 -27.5t-1 -15.5z" />
<glyph unicode="q" horiz-adv-x="874" d="M29 285q0 37 6 73q29 164 147 269q119 106 271 106q115 0 172 -63q55 59 120 59q98 0 99 -104q0 -25 -6 -58l-125 -698q-27 -162 -150 -162q-102 0 -102 107q0 25 6 55l29 154q-78 -47 -174 -48q-66 0 -119 22.5t-92 64.5t-60.5 98.5t-21.5 124.5zM283 309 q0 -123 110 -123q61 0 106.5 45t59.5 123q2 14 3 24.5t1 16.5q0 123 -110 123q-61 0 -107.5 -44t-58.5 -120q-2 -16 -3 -27.5t-1 -17.5z" />
<glyph unicode="r" horiz-adv-x="561" d="M37 94q0 27 6 58l74 415q27 162 151 162q61 0 97 -59q76 63 161 63q51 -1 83 -33q24 -25 24 -57q0 -10 -2 -22q-10 -61 -111 -99q-57 -20 -106 -38.5t-66 -43.5q-8 -10 -13 -28.5t-9 -42.5l-39 -217q-29 -158 -150 -158q-100 0 -100 100z" />
<glyph unicode="s" horiz-adv-x="638" d="M-20 127q2 4 2 16q8 45 37.5 74t72.5 29q39 0 123 -39q41 -20 74 -21q51 0 59 33q2 20 -39 37q-20 10 -36.5 17.5t-28.5 11.5q-184 76 -185 184q0 6 1 15.5t3 21.5q14 100 111 168q93 67 217 67h4q57 0 105.5 -13t81 -34.5t48.5 -49.5q11 -20 11 -41q0 -8 -2 -17 q-6 -39 -42 -68t-79 -29q-27 0 -82 25q-51 27 -88 27q-41 0 -47 -27q-4 -25 41 -41t96 -35q158 -72 158 -178q0 -29 -2 -33q-18 -106 -119 -176q-101 -67 -235 -67h-4q-119 0 -187.5 39.5t-68.5 103.5z" />
<glyph unicode="t" horiz-adv-x="493" d="M33 594q0 16 2 18q16 102 153 103l15 82q27 161 149 161h2q96 0 97 -102q0 -27 -7 -59l-14 -82h12q133 -1 133 -84q0 -9 -2 -19q-18 -100 -170 -100h-10l-63 -360q-29 -158 -148 -158q-100 0 -100 100q0 27 6 58l64 360q-119 0 -119 82z" />
<glyph unicode="u" horiz-adv-x="843" d="M57 221q0 31 6 72l50 274q27 162 151 162q96 0 96 -104q0 -27 -6 -58l-41 -233q-6 -35 -6 -58q0 -83 86 -83h2q59 0 87 34.5t40 106.5l41 233q27 162 152 162q100 0 100 -104q0 -27 -6 -58l-49 -274q-27 -154 -132.5 -232.5t-271.5 -78.5q-299 0 -299 239z" />
<glyph unicode="v" horiz-adv-x="679" d="M41 616q8 47 48 80t93 33q86 0 105 -108l53 -328l170 340q45 92 131 92q100 0 100 -88q0 -17 -2 -21q-6 -23 -28 -73l-271 -453q-33 -57 -67.5 -80.5t-91.5 -23.5t-83 23.5t-40 86.5l-115 459q-4 20 -4 38q0 12 2 23z" />
<glyph unicode="w" horiz-adv-x="1095" d="M41 616q8 47 48 80t93 33q88 0 105 -111l45 -339l145 342q43 100 133 100q94 0 107 -105l31 -333l167 350q51 92 134 92q45 0 72.5 -23.5t27.5 -64.5q0 -17 -2 -21q-4 -23 -10 -34q-2 -4 -6.5 -13.5t-14.5 -25.5l-252 -453q-33 -57 -68.5 -80.5t-88.5 -23.5 q-113 0 -125 112l-31 291l-127 -297q-23 -51 -65 -78.5t-95 -27.5q-55 0 -82.5 23.5t-42.5 86.5l-96 459q-4 16 -4 35q0 12 2 26z" />
<glyph unicode="x" horiz-adv-x="720" d="M-47 82q0 27 11 52.5t50 64.5l213 182l-125 143q-29 35 -29 71q0 11 3 21q8 43 48 78t85 35q59 0 94 -47l105 -137l137 133q57 51 110 51q47 0 77 -25.5t30 -66.5q0 -17 -2 -19q-6 -45 -70 -96l-164 -139l138 -178q34 -40 34 -80q0 -22 -2 -27q-8 -43 -46 -73.5 t-83 -30.5q-55 0 -102 53l-119 168l-182 -168q-66 -53 -115 -53q-45 0 -70.5 23.5t-25.5 64.5z" />
<glyph unicode="y" horiz-adv-x="702" d="M29 -207q2 6 2 19q8 37 12 43q2 4 7 12t13 18l121 178l-135 490q-6 14 -6 29q-4 6 0 30.5t21.5 50t47 46t76.5 20.5q80 0 107 -106l61 -291l181 307q53 90 127 90q102 0 102 -86q0 -21 -2 -25q-4 -18 -15.5 -41.5t-15.5 -33.5l-475 -752q-27 -45 -55.5 -67.5t-67.5 -22.5 q-49 0 -77.5 24.5t-28.5 67.5z" />
<glyph unicode="z" horiz-adv-x="655" d="M-53 74q4 23 16 44t37 42l348 352h-170q-135 0 -135 82q0 9 2 20q18 104 170 105h360q82 -1 115 -15q27 -12 27 -43q0 -8 -2 -16q-10 -41 -66 -96l-344 -338h199q135 0 135 -86q0 -16 -2 -19q-18 -106 -172 -106h-406q-66 0 -93 16q-21 12 -21 40q0 8 2 18z" />
<glyph unicode="{" horiz-adv-x="608" d="M49 348l29 156l37 -2q80 0 118.5 36.5t53.5 118.5l28 162q14 86 36 129t77 70q33 18 85 26.5t120 8.5l63 -2l-28 -156h-43q-68 0 -92.5 -23.5t-36.5 -95.5l-27 -158q-16 -86 -47 -129t-100 -63q86 -31 86 -117q0 -45 -9 -76l-26 -157q-6 -31 -6 -53q0 -61 94 -62l43 2 l-29 -156l-63 -2q-139 -4 -190.5 32t-55.5 106q0 25 2 40t8 50l29 164q6 31 6 55q0 98 -125 98z" />
<glyph unicode="|" horiz-adv-x="731" d="M311 -315v1347h164v-1347h-164z" />
<glyph unicode="}" horiz-adv-x="608" d="M-57 -190l28 155l39 -2q35 0 57.5 5t37 17.5t22.5 35t14 57.5l27 158q16 86 45 128t100 64q-84 29 -84 115q0 47 9 78l26 157q6 31 6 53q0 35 -21.5 50.5t-74.5 15.5h-43l29 156h59q76 0 120 -7.5t77 -27.5q55 -29 55 -105q0 -16 -3 -39.5t-7 -52.5l-29 -164 q-6 -31 -6 -55q0 -98 125 -98l37 2l-29 -156h-35q-80 0 -119.5 -34.5t-54.5 -116.5l-28 -164q-8 -45 -16.5 -74t-16.5 -45q-25 -49 -82 -74q-35 -18 -87 -26.5t-116 -8.5z" />
<glyph unicode="~" horiz-adv-x="1204" d="M113 336q0 57 59 98q98 61 170 88t131 27q55 0 123 -19q23 -6 52.5 -16t68.5 -25q35 -14 71 -14q72 0 173 64q33 20 65 20q35 0 59.5 -26.5t24.5 -61.5q0 -63 -63 -100q-162 -100 -295 -101q-35 0 -66 6q-23 6 -39 10.5t-26 8.5q-45 16 -93.5 32.5t-89.5 16.5 q-55 0 -176 -78q-35 -23 -65 -22q-35 0 -59.5 26.5t-24.5 65.5z" />
<glyph unicode="&#xa4;" horiz-adv-x="839" d="M8 164l148 145q-61 82 -62 193q0 115 62 188l-148 150l76 71l145 -145q78 59 193 59q55 0 105.5 -16t82.5 -43l150 145l71 -71l-145 -150q59 -78 59 -188q0 -115 -59 -193l145 -145l-71 -76l-150 148q-31 -25 -83 -43.5t-105 -18.5q-111 0 -193 62l-145 -148zM197 502 q0 -94 63 -164q63 -68 162 -68q92 0 158 68q63 63 63 164q0 45 -16.5 87t-46 72.5t-69.5 49t-89 18.5q-96 0 -160 -67q-66 -72 -65 -160z" />
<glyph unicode="&#xa9;" horiz-adv-x="1081" d="M57 395v54q4 12 5 21t4 13q35 207 204 353q176 145 379 145q182 0 301 -119t119 -295q0 -20 -3 -45t-5 -39q-37 -207 -207 -352q-170 -141 -379 -141q-182 0 -301 112q-117 113 -117 293zM160 412q0 -141 92 -236q94 -92 240 -92q164 0 303 115q139 116 166 284 q6 37 6 72q0 141 -92.5 233.5t-241.5 92.5q-166 0 -303 -117q-135 -115 -164 -281q-6 -37 -6 -71zM279 428q0 27 6 55q10 59 38.5 109.5t71.5 86.5t98.5 56.5t120.5 20.5q100 0 172 -60q58 -53 50 -104q-8 -43 -23.5 -58.5t-58.5 -23.5q-43 0 -58 18q-6 8 -17 36t-24 36 q-20 14 -65 14q-53 0 -93 -35.5t-46 -72.5q-2 -16 -3.5 -30.5t-1.5 -24.5q0 -100 97 -101q43 0 63.5 11.5t36.5 29.5q25 35 27 37q25 29 73 29q57 -12 58 -54q0 -8 -6 -45q-6 -35 -84 -88q-90 -61 -193 -61q-113 0 -176 60.5t-63 158.5z" />
<glyph unicode="&#xab;" horiz-adv-x="737" d="M31 324q0 8 7 49t46 80q16 16 44 35.5t69 41.5q47 31 86 49.5t65 18.5q55 0 55 -61q0 -21 -2 -25q-6 -37 -32 -57q-4 -4 -12.5 -10.5t-22.5 -14.5l-123 -74l96 -73q23 -18 32 -30.5t9 -35.5q0 -16 -2 -18q-8 -41 -30.5 -62.5t-53.5 -21.5q-47 0 -127 67q-55 39 -76 64 q-29 35 -28 78zM358 326q0 6 7.5 47t46.5 80q16 16 43.5 35.5t68.5 41.5q49 31 89 49.5t65 18.5q51 0 51 -59q0 -23 -2 -27q-6 -31 -19.5 -47t-43.5 -35l-121 -74l94 -73q18 -14 27.5 -27.5t9.5 -34.5q0 -18 -2 -22q-16 -84 -82 -84q-45 0 -127 67q-20 16 -34.5 27.5 t-25.5 21.5q-45 43 -45 95z" />
<glyph unicode="&#xac;" d="M63 317v82h695v-268h-84v186h-611z" />
<glyph unicode="&#xad;" d="M59 332l25 145h696l-24 -145h-697z" />
<glyph unicode="&#xae;" horiz-adv-x="1081" d="M57 395v54q4 12 5 21t4 13q35 207 204 353q176 145 379 145q182 0 301 -119t119 -295q0 -20 -3 -45t-5 -39q-37 -207 -207 -352q-170 -141 -379 -141q-182 0 -301 112q-117 113 -117 293zM160 412q0 -141 92 -236q94 -92 240 -92q164 0 303 115q139 116 166 284 q6 37 6 72q0 141 -92.5 233.5t-241.5 92.5q-166 0 -303 -117q-135 -115 -164 -281q-6 -37 -6 -71zM295 217l96 553h234q229 0 229 -129q0 -4 -1 -12.5t-3 -20.5q-20 -115 -148 -149l91 -242h-181l-69 219h-51l-39 -219h-158zM508 535h59q103 -1 119 65q12 68 -102 68h-54z " />
<glyph unicode="&#xb0;" horiz-adv-x="540" d="M66 713q0 -43 16 -80t44 -64.5t63.5 -43t76.5 -15.5q43 0 80 15.5t64.5 43t44 64.5t16.5 80t-16.5 79.5t-44 64.5t-64.5 43t-80 15t-78.5 -16t-63.5 -44t-43 -64.5t-15 -77.5zM121 713q0 61 42 103t103 42t105.5 -43t44.5 -102t-45 -105q-43 -43 -105 -43q-59 0 -102 44 t-43 104z" />
<glyph unicode="&#xb6;" horiz-adv-x="727" d="M-6 858q0 -162 110 -235q94 -61 263 -62v-813h55v1364h145v-1364h62v1364h102v41h-389q-158 0 -248 -66q-100 -76 -100 -229z" />
<glyph unicode="&#xb7;" horiz-adv-x="337" d="M96 449q0 -33 20.5 -53.5t53.5 -20.5q29 0 50.5 21.5t21.5 52.5q0 29 -20.5 50t-51.5 21q-33 0 -53.5 -20.5t-20.5 -50.5z" />
<glyph unicode="&#xbb;" horiz-adv-x="737" d="M6 176q0 27 11.5 52.5t56.5 54.5l127 73l-101 74q-12 10 -19 17.5t-9 9.5q-10 16 -11 37q0 8 3.5 25.5t12.5 34.5t25.5 30.5t44.5 13.5q45 0 132 -68q53 -39 76.5 -69.5t23.5 -75.5q0 -25 -2 -29q-12 -59 -51 -98q-33 -33 -109 -78q-51 -29 -91 -47t-65 -18q-55 0 -55 61 zM336 176q0 27 11 52.5t56 54.5l123 73l-96 74q-12 10 -19.5 17.5l-9.5 9.5q-10 16 -10 37q0 8 3 25.5t12.5 34.5t26 30.5t44.5 13.5q43 0 127 -68q29 -23 47.5 -39t28.5 -26q27 -33 27 -80q0 -25 -2 -29q-8 -49 -35 -82q-14 -16 -45 -40.5t-82 -53.5q-49 -29 -89 -47 t-65 -18q-53 0 -53 61z" />
<glyph unicode="&#xd7;" d="M35 168l280 238l-196 237l121 102l196 -237l281 240l84 -105l-281 -237l197 -240l-121 -103l-197 240l-278 -237z" />
<glyph unicode="&#xf7;" d="M59 332l25 145h696l-24 -145h-697zM258 141q8 45 48 77t87 32t74.5 -32t19.5 -77q-8 -43 -48 -75.5t-85 -32.5q-49 0 -76.5 30.5t-19.5 77.5zM350 668q8 43 49 75.5t86 32.5q43 0 70 -24.5t27 -65.5q0 -16 -2 -18q-8 -43 -48 -76t-86 -33q-49 0 -76.5 31t-19.5 78z" />
<glyph unicode="&#x2000;" horiz-adv-x="682" />
<glyph unicode="&#x2001;" horiz-adv-x="1365" />
<glyph unicode="&#x2002;" horiz-adv-x="682" />
<glyph unicode="&#x2003;" horiz-adv-x="1365" />
<glyph unicode="&#x2004;" horiz-adv-x="455" />
<glyph unicode="&#x2005;" horiz-adv-x="341" />
<glyph unicode="&#x2006;" horiz-adv-x="227" />
<glyph unicode="&#x2007;" horiz-adv-x="227" />
<glyph unicode="&#x2008;" horiz-adv-x="170" />
<glyph unicode="&#x2009;" horiz-adv-x="273" />
<glyph unicode="&#x200a;" horiz-adv-x="75" />
<glyph unicode="&#x2010;" horiz-adv-x="628" d="M51 375q14 92 142 92h288q57 0 84 -24.5t19 -67.5q-16 -92 -138 -92h-288q-123 0 -107 92z" />
<glyph unicode="&#x2011;" horiz-adv-x="628" d="M51 375q14 92 142 92h288q57 0 84 -24.5t19 -67.5q-16 -92 -138 -92h-288q-123 0 -107 92z" />
<glyph unicode="&#x2012;" horiz-adv-x="628" d="M51 375q14 92 142 92h288q57 0 84 -24.5t19 -67.5q-16 -92 -138 -92h-288q-123 0 -107 92z" />
<glyph unicode="&#x2013;" d="M59 332l25 145h696l-24 -145h-697z" />
<glyph unicode="&#x2014;" horiz-adv-x="1638" d="M59 332l25 145h1515l-24 -145h-1516z" />
<glyph unicode="&#x2018;" horiz-adv-x="358" d="M106 713q0 4 1.5 12t3.5 20q18 104 100 175q84 72 162 71q53 0 45 -45q-4 -23 -33 -37q-57 -29 -59 -30q-27 -18 -43.5 -38t-26.5 -40q18 6 31 6q94 0 94 -86q0 -18 -2 -23q-8 -49 -50 -80.5t-100 -31.5q-57 0 -90 34.5t-33 92.5z" />
<glyph unicode="&#x2019;" horiz-adv-x="358" d="M94 627q4 23 34 37t58 30q31 18 46.5 38t23.5 40q-18 -6 -31 -6q-94 0 -94 86q0 18 2 22q10 47 52 80t98 33q57 0 90 -34.5t33 -92.5q0 -4 -1.5 -12.5t-3.5 -20.5q-16 -100 -104 -176q-76 -70 -158 -69q-20 0 -33.5 14t-11.5 31z" />
<glyph unicode="&#x201c;" horiz-adv-x="673" d="M106 713q0 4 1.5 12t3.5 20q18 104 100 175q84 72 162 71q53 0 45 -45q-4 -23 -33 -37q-57 -29 -59 -30q-27 -18 -43.5 -38t-26.5 -40q18 6 31 6q94 0 94 -86q0 -18 -2 -23q-8 -49 -50 -80.5t-100 -31.5q-57 0 -90 34.5t-33 92.5zM422 713q0 4 1 12t3 20q18 104 100 175 q84 72 162 71q53 0 45 -45q-4 -23 -33 -37q-57 -29 -59 -30q-27 -18 -43 -38t-27 -40q18 6 31 6q94 0 94 -86q0 -18 -2 -23q-8 -49 -50 -80.5t-99 -31.5t-90 34.5t-33 92.5z" />
<glyph unicode="&#x201d;" horiz-adv-x="673" d="M94 627q4 23 34 37t58 30q31 18 46.5 38t23.5 40q-18 -6 -31 -6q-94 0 -94 86q0 18 2 22q10 47 52 80t98 33q57 0 90 -34.5t33 -92.5q0 -4 -1.5 -12.5t-3.5 -20.5q-16 -100 -104 -176q-76 -70 -158 -69q-20 0 -33.5 14t-11.5 31zM410 627q4 23 33.5 37t58.5 30 q31 18 46 38t23 40q-18 -6 -30 -6q-94 0 -95 86q0 18 3 22q10 47 52 80t97 33q57 0 90 -34.5t33 -92.5q0 -4 -1 -12.5t-3 -20.5q-16 -100 -105 -176q-76 -70 -157 -69q-20 0 -33.5 14t-11.5 31z" />
<glyph unicode="&#x2022;" horiz-adv-x="737" d="M68 358v25q2 10 3 16.5t1 10.5q20 127 128.5 217t233.5 90q55 0 102.5 -18.5t81 -52.5t53 -80t19.5 -101q0 -18 -1 -31.5t-3 -23.5q-20 -129 -127 -217q-109 -90 -233 -91q-55 0 -103.5 19.5t-82.5 53.5t-53 81t-19 102z" />
<glyph unicode="&#x2026;" horiz-adv-x="1267" d="M29 98q0 18 2 21q10 53 57 91t107 38q51 0 83.5 -31t32.5 -78q0 -16 -2 -20q-10 -55 -55 -90t-104 -35q-53 0 -87 27.5t-34 76.5zM451 98q0 18 2 21q10 53 57 91t106 38q51 0 84 -31t33 -78q0 -16 -2 -20q-10 -55 -55 -90t-105 -35q-53 0 -86.5 27.5t-33.5 76.5zM872 98 q0 18 2 21q10 53 57.5 91t106.5 38q51 0 84 -31t33 -78q0 -16 -2 -20q-10 -55 -55 -90t-105 -35q-53 0 -87 27.5t-34 76.5z" />
<glyph unicode="&#x202f;" horiz-adv-x="273" />
<glyph unicode="&#x205f;" horiz-adv-x="341" />
<glyph unicode="&#x25fc;" horiz-adv-x="727" d="M0 0v727h727v-727h-727z" />
</font>
</defs>
</svg>
